<?xml version="1.0" standalone="no"?>
<!DOCTYPE svg PUBLIC "-//W3C//DTD SVG 20010904//EN"
 "http://www.w3.org/TR/2001/REC-SVG-20010904/DTD/svg10.dtd">
<svg version="1.0" xmlns="http://www.w3.org/2000/svg"
 width="512.000000pt" height="512.000000pt" viewBox="0 0 512.000000 512.000000"
 preserveAspectRatio="xMidYMid meet">

<g transform="translate(0.000000,512.000000) scale(0.100000,-0.100000)"
fill="#000000" stroke="none">
<path d="M2399 4399 c-311 -26 -618 -142 -898 -339 -173 -123 -384 -358 -506
-564 -324 -552 -337 -1243 -33 -1816 262 -494 745 -845 1303 -946 123 -22 448
-25 569 -5 211 35 455 122 632 226 215 127 436 328 577 525 87 123 203 355
250 500 236 738 -1 1542 -597 2024 -366 296 -822 435 -1297 395z m59 -611 l-3
-383 -75 3 c-176 8 -470 56 -470 77 0 24 87 222 130 296 98 169 214 296 327
357 102 55 94 87 91 -350z m305 350 c127 -68 278 -251 371 -449 65 -138 89
-209 73 -214 -90 -30 -501 -83 -529 -68 -5 2 -8 175 -8 384 0 432 -9 401 93
347z m-803 -75 c0 -5 -23 -42 -51 -83 -57 -85 -146 -263 -179 -360 -13 -36
-27 -69 -32 -74 -5 -6 -28 -3 -60 9 -77 26 -248 107 -248 115 0 18 183 180
268 238 81 56 274 161 295 162 4 0 7 -3 7 -7z m1309 -38 c104 -52 209 -118
289 -182 85 -68 182 -165 175 -176 -16 -26 -289 -135 -302 -121 -5 5 -26 52
-46 104 -46 117 -112 246 -168 331 -59 88 -60 89 -47 89 6 0 50 -20 99 -45z
m-1922 -579 c48 -25 131 -61 183 -81 52 -21 97 -39 101 -40 3 -2 -5 -54 -18
-116 -23 -117 -47 -299 -58 -451 l-7 -88 -294 0 -294 0 0 31 c0 88 43 283 92
419 52 142 173 370 197 370 5 0 49 -20 98 -44z m2593 -40 c119 -197 202 -445
225 -669 l7 -67 -298 2 -299 3 -6 110 c-8 129 -32 310 -60 443 -10 52 -18 96
-17 97 2 1 37 14 80 29 42 16 125 52 185 81 59 29 113 54 120 54 6 1 35 -37
63 -83z m-1928 -171 c78 -14 211 -30 295 -37 l153 -12 0 -258 0 -258 -351 0
-351 0 6 48 c3 26 8 83 12 127 14 186 58 415 79 415 8 0 78 -11 157 -25z
m1297 -87 c26 -137 51 -343 51 -420 l0 -58 -345 0 -345 0 0 260 0 260 45 0
c69 0 308 28 421 49 164 31 148 39 173 -91z m-1755 -780 c14 -176 28 -288 52
-417 14 -74 21 -137 17 -141 -4 -4 -37 -17 -73 -29 -36 -13 -120 -50 -188 -82
-68 -33 -127 -57 -132 -54 -16 10 -101 163 -139 252 -21 49 -51 126 -65 171
-29 92 -66 285 -66 344 l0 38 294 0 294 0 6 -82z m906 -168 c0 -237 -1 -250
-19 -250 -105 0 -505 -52 -583 -76 -20 -6 -28 20 -53 166 -20 117 -47 389 -39
401 3 5 157 9 350 9 l344 0 0 -250z m900 193 c0 -110 -56 -502 -74 -520 -1 -2
-45 5 -97 16 -110 22 -308 48 -431 57 l-88 6 0 249 0 249 345 0 345 0 0 -57z
m805 -10 c-16 -162 -69 -357 -136 -502 -50 -108 -128 -241 -141 -241 -5 0 -37
15 -71 34 -68 38 -236 110 -280 122 -16 3 -31 12 -34 20 -2 7 2 48 11 91 25
124 46 289 52 408 3 61 7 116 10 123 2 9 71 12 300 12 l296 0 -7 -67z m-1705
-1049 l0 -395 -22 7 c-186 57 -371 283 -503 613 -29 73 -34 95 -24 102 33 20
350 66 472 68 l77 1 0 -396z m418 386 c109 -12 321 -48 339 -58 28 -16 -120
-331 -217 -461 -90 -122 -220 -229 -307 -256 l-23 -6 0 395 0 396 55 0 c31 0
99 -5 153 -10z m-1156 -205 c40 -111 127 -285 188 -379 28 -43 48 -81 45 -84
-9 -9 -168 72 -260 132 -127 83 -315 247 -315 275 0 4 14 15 31 25 44 26 262
116 273 113 5 -2 22 -39 38 -82z m1800 56 c66 -26 215 -96 227 -107 10 -9
-137 -148 -224 -213 -127 -95 -311 -201 -349 -201 -11 0 2 26 38 83 66 101
154 278 193 387 15 44 30 80 33 80 3 0 40 -13 82 -29z"/>
</g>
</svg>
